<svg width="512" height="512" viewBox="0 0 512 512" fill="none" xmlns="http://www.w3.org/2000/svg">
  <path d="M60 100C60 80 80 60 100 60H412C432 60 452 80 452 100V412C452 432 432 452 412 452H100C80 452 60 432 60 412V100Z" fill="#1D4E89"/>
  
  <path d="M90 90H256V430H110C95 430 85 420 85 405V105C85 95 90 90 90 90Z" fill="#D9EFFF"/>
  <path d="M256 90H422C427 90 432 95 432 105V405C432 420 422 430 407 430H256V90Z" fill="white"/>

  <rect x="120" y="160" width="100" height="15" rx="7.5" fill="#1D4E89"/>
  <rect x="120" y="210" width="100" height="15" rx="7.5" fill="#1D4E89"/>
  <rect x="120" y="260" width="100" height="15" rx="7.5" fill="#1D4E89"/>
  <rect x="120" y="310" width="70" height="15" rx="7.5" fill="#1D4E89"/>

  <path d="M290 260L340 310L410 180" stroke="#4CAF50" stroke-width="45" stroke-linecap="round" stroke-linejoin="round"/>
</svg>
